<svg width="160.5" height="29.83" version="1.1" viewBox="0 0 160.5 29.83" xml:space="preserve" xmlns="http://www.w3.org/2000/svg">
<style type="text/css">
	.st0{fill:#FFFDFD;stroke:#FFFFFF;stroke-miterlimit:10;}
	.st1{fill:#FFFFFF;}
</style>
<g transform="translate(0,-25)">
	<path class="st0" d="m41.91 35.19h-4.19v-1.48h10.19v1.48h-4.21v12.02h-1.8z"/>
	<path class="st0" d="m50.54 42.68c0.04 2.38 1.59 3.37 3.39 3.37 1.29 0 2.06-0.22 2.74-0.5l0.31 1.26c-0.63 0.28-1.72 0.6-3.29 0.6-3.04 0-4.86-1.96-4.86-4.89 0-2.92 1.76-5.23 4.63-5.23 3.23 0 4.08 2.78 4.08 4.57 0 0.36-0.04 0.64-0.06 0.82h-6.94zm5.27-1.26c0.02-1.12-0.47-2.86-2.49-2.86-1.82 0-2.61 1.64-2.76 2.86z"/>
	<path class="st0" d="m61.81 40.68c0-1.24-0.04-2.24-0.08-3.16h1.61l0.08 1.66h0.04c0.74-1.18 1.9-1.88 3.51-1.88 2.39 0 4.19 1.98 4.19 4.93 0 3.49-2.16 5.21-4.49 5.21-1.31 0-2.45-0.56-3.04-1.52h-0.04v5.27h-1.78v-10.51zm1.78 2.58c0 0.26 0.04 0.5 0.08 0.72 0.33 1.22 1.41 2.06 2.7 2.06 1.9 0 3-1.52 3-3.75 0-1.94-1.04-3.61-2.94-3.61-1.23 0-2.37 0.86-2.72 2.18-0.06 0.22-0.12 0.48-0.12 0.72z"/>
	<path class="st0" d="m75.47 40.68c0-1.24-0.04-2.24-0.08-3.16h1.61l0.08 1.66h0.04c0.74-1.18 1.9-1.88 3.51-1.88 2.39 0 4.19 1.98 4.19 4.93 0 3.49-2.16 5.21-4.49 5.21-1.31 0-2.45-0.56-3.04-1.52h-0.04v5.27h-1.78v-10.51zm1.78 2.58c0 0.26 0.04 0.5 0.08 0.72 0.33 1.22 1.41 2.06 2.7 2.06 1.9 0 3-1.52 3-3.75 0-1.94-1.04-3.61-2.94-3.61-1.23 0-2.37 0.86-2.72 2.18-0.06 0.22-0.12 0.48-0.12 0.72v1.68z"/>
	<path class="st0" d="m90.78 37.51v4.09c0 1.54-0.02 2.5-0.1 3.89l0.06 0.02c0.59-1.18 0.94-1.86 1.59-2.98l3.08-5.01h2.1v9.69h-1.72v-4.11c0-1.58 0.04-2.4 0.12-3.97h-0.06c-0.63 1.24-1.06 2.02-1.63 3-0.94 1.5-2.02 3.37-3.08 5.07h-2.06v-9.69z"/>
	<path class="st0" d="m109.1 37.51v1.4h-3.08v8.29h-1.78v-8.29h-3.08v-1.4z"/>
	<path class="st0" d="m121.39 42.28c0 3.59-2.53 5.15-4.92 5.15-2.67 0-4.74-1.92-4.74-4.99 0-3.25 2.16-5.15 4.9-5.15 2.84 0 4.76 2.03 4.76 4.99zm-7.84 0.1c0 2.12 1.25 3.73 3 3.73 1.72 0 3-1.58 3-3.77 0-1.64-0.84-3.73-2.96-3.73-2.12 0.01-3.04 1.93-3.04 3.77z"/>
	<path class="st0" d="m125.7 40.68c0-1.24-0.04-2.24-0.08-3.16h1.61l0.08 1.66h0.04c0.73-1.18 1.9-1.88 3.51-1.88 2.39 0 4.19 1.98 4.19 4.93 0 3.49-2.16 5.21-4.49 5.21-1.31 0-2.45-0.56-3.04-1.52h-0.04v5.27h-1.78zm1.78 2.58c0 0.26 0.04 0.5 0.08 0.72 0.33 1.22 1.41 2.06 2.7 2.06 1.9 0 3-1.52 3-3.75 0-1.94-1.04-3.61-2.94-3.61-1.23 0-2.37 0.86-2.72 2.18-0.06 0.22-0.12 0.48-0.12 0.72z"/>
	<path class="st0" d="m141.01 37.51v4.09c0 1.54-0.02 2.5-0.1 3.89l0.06 0.02c0.59-1.18 0.94-1.86 1.59-2.98l3.08-5.01h2.1v9.69h-1.72v-4.11c0-1.58 0.04-2.4 0.12-3.97h-0.06c-0.63 1.24-1.06 2.02-1.63 3-0.94 1.5-2.02 3.37-3.08 5.07h-2.06v-9.69z"/>
	<path class="st0" d="m160 47.21h-1.78v-4.07h-1.33c-0.76 0-1.27 0.2-1.65 0.54-0.73 0.58-1 1.78-1.39 2.72-0.12 0.3-0.27 0.56-0.41 0.8h-1.92c0.22-0.32 0.43-0.68 0.61-1.1 0.43-0.94 0.67-2.2 1.55-2.92 0.31-0.26 0.67-0.48 1.12-0.56v-0.06c-1.29-0.14-2.61-0.92-2.61-2.4 0-1 0.55-1.68 1.31-2.1 0.82-0.46 2.02-0.66 3.31-0.66 1.18 0 2.33 0.1 3.19 0.2zm-1.78-8.53c-0.45-0.06-0.86-0.1-1.49-0.1-1.23 0-2.67 0.34-2.67 1.68 0 1.24 1.57 1.68 2.63 1.68h1.53z"/>
</g>
<path class="st1" d="m12.22 0c-6.75 0-12.22 5.37-12.22 11.99v17.84h17.71c6.75 0 12.22-5.37 12.22-11.99v-17.84zm4.87 13.65v8.86c0 0.85-0.7 1.53-1.56 1.53s-1.56-0.69-1.56-1.53v-7.89h-1.67c-0.86 0-1.56-0.69-1.56-1.53 0-0.85 0.7-1.53 1.56-1.53h3.24c0.86 0 1.56 0.69 1.56 1.53 0 0.1-0.01 0.19-0.03 0.28 0.01 0.09 0.02 0.18 0.02 0.28zm-0.46-5.22c-0.62 0.58-1.6 0.58-2.22 0-0.59-0.61-0.59-1.57 0-2.18 0.62-0.61 1.6-0.61 2.22 0 0.61 0.6 0.61 1.57 0 2.18z"/>
</svg>
