<svg version="1.2" xmlns="http://www.w3.org/2000/svg" viewBox="0 0 2560 1440" width="2560" height="1440">
	<title>red-svg</title>
	<defs>
		<clipPath clipPathUnits="userSpaceOnUse" id="cp1">
			<path d="m0 0h2560v1440h-2560z"/>
		</clipPath>
	</defs>
	<style>
		.s0 { fill: #fb3449 } 
		.s1 { fill: none;stroke: #fb3449;stroke-miterlimit:10;stroke-width: 1.3 } 
	</style>
	<g id="g10">
		<g id="g14">
			<path id="path16" class="s0" d="m1437.4 554.4h-13v-87.3h-48.3v87.3h-12.9v-97.9h74.2z"/>
		</g>
		<g id="g18">
			<path id="path20" fill-rule="evenodd" class="s1" d="m1437.4 554.4h-13v-87.3h-48.3v87.3h-12.9v-97.9h74.2z"/>
		</g>
		<g id="g22">
			<g id="Clip-Path: g24" clip-path="url(#cp1)">
				<g id="g24">
					<g id="g30">
						<path id="path32" fill-rule="evenodd" class="s0" d="m1536.2 508.7q0 14.3-4.9 25.1-4.8 10.7-13.7 16.3-8.9 5.7-20.7 5.7-11.6 0-20.5-5.7-9-5.7-13.9-16.2-4.9-10.5-5.1-24.4v-7q0-14.2 4.9-25 4.9-10.8 13.9-16.6 9-5.7 20.6-5.7 11.7 0 20.7 5.7 9 5.7 13.8 16.5 4.9 10.7 4.9 25.1zm-12.9-6.4q0-17.4-7-26.7-7-9.3-19.5-9.3-12.3 0-19.3 9.3-7 9.3-7.2 25.9v7.2q0 16.8 7.1 26.5 7 9.6 19.5 9.6 12.5 0 19.4-9.1 6.8-9.1 7-26.1z"/>
					</g>
					<g id="g34">
						<path id="path36" fill-rule="evenodd" class="s1" d="m1536.2 508.7q0 14.3-4.9 25.1-4.8 10.7-13.7 16.3-8.9 5.7-20.7 5.7-11.6 0-20.5-5.7-9-5.7-13.9-16.2-4.9-10.5-5.1-24.4v-7q0-14.2 4.9-25 4.9-10.8 13.9-16.6 9-5.7 20.6-5.7 11.7 0 20.7 5.7 9 5.7 13.8 16.5 4.9 10.7 4.9 25.1zm-12.9-6.4q0-17.4-7-26.7-7-9.3-19.5-9.3-12.3 0-19.3 9.3-7 9.3-7.2 25.9v7.2q0 16.8 7.1 26.5 7 9.6 19.5 9.6 12.5 0 19.4-9.1 6.8-9.1 7-26.1z"/>
					</g>
					<g id="g38">
						<path id="path40" fill-rule="evenodd" class="s0" d="m1602.5 516.1v38.3h-12.9v-97.9h36.1q16.1 0 25.2 8.2 9.1 8.3 9.1 21.8 0 14.2-8.9 21.9-8.9 7.7-25.5 7.7zm0-10.5h23.2q10.3 0 15.8-4.9 5.6-4.9 5.6-14.1 0-8.8-5.6-14-5.5-5.3-15.1-5.5h-23.9z"/>
					</g>
					<g id="g42">
						<path id="path44" fill-rule="evenodd" class="s1" d="m1602.5 516.1v38.3h-12.9v-97.9h36.1q16.1 0 25.2 8.2 9.1 8.3 9.1 21.8 0 14.2-8.9 21.9-8.9 7.7-25.5 7.7zm0-10.5h23.2q10.3 0 15.8-4.9 5.6-4.9 5.6-14.1 0-8.8-5.6-14-5.5-5.3-15.1-5.5h-23.9z"/>
					</g>
					<g id="g46">
						<path id="path48" class="s0" d="m1731.8 509.2h-42.4v34.7h49.3v10.5h-62.2v-97.9h61.5v10.6h-48.6v31.5h42.4z"/>
					</g>
					<g id="g50">
						<path id="path52" fill-rule="evenodd" class="s1" d="m1731.8 509.2h-42.4v34.7h49.3v10.5h-62.2v-97.9h61.5v10.6h-48.6v31.5h42.4z"/>
					</g>
					<g id="g54">
						<path id="path56" class="s0" d="m1768.2 456.5v87.4h33.7v-87.4h12.8v87.4h33.5v-87.4h12.9v97.9h-105.9v-97.9z"/>
					</g>
					<g id="g58">
						<path id="path60" fill-rule="evenodd" class="s1" d="m1768.2 456.5v87.4h33.7v-87.4h12.8v87.4h33.5v-87.4h12.9v97.9h-105.9v-97.9z"/>
					</g>
					<g id="g62">
						<path id="path64" class="s0" d="m1939.7 509.2h-42.5v34.7h49.3v10.5h-62.2v-97.9h61.5v10.6h-48.6v31.5h42.5z"/>
					</g>
					<g id="g66">
						<path id="path68" fill-rule="evenodd" class="s1" d="m1939.7 509.2h-42.5v34.7h49.3v10.5h-62.2v-97.9h61.5v10.6h-48.6v31.5h42.5z"/>
					</g>
					<g id="g70">
						<path id="path72" class="s0" d="m2037.8 554.4h-13v-45.2h-49.3v45.2h-12.9v-97.9h12.9v42.1h49.3v-42.1h13z"/>
					</g>
					<g id="g74">
						<path id="path76" fill-rule="evenodd" class="s1" d="m2037.8 554.4h-13v-45.2h-49.3v45.2h-12.9v-97.9h12.9v42.1h49.3v-42.1h13z"/>
					</g>
					<g id="g78">
						<path id="path80" class="s0" d="m2122.5 456.5h12.9v97.9h-12.9v-75.4l-48.2 75.4h-13v-97.9h13v75.5z"/>
					</g>
					<g id="g82">
						<path id="path84" fill-rule="evenodd" class="s1" d="m2122.5 456.5h12.9v97.9h-12.9v-75.4l-48.2 75.4h-13v-97.9h13v75.5z"/>
					</g>
					<g id="g86">
						<path id="path88" fill-rule="evenodd" class="s0" d="m2265.5 508.7q0 14.3-4.9 25.1-4.8 10.7-13.7 16.3-8.8 5.7-20.7 5.7-11.1 0-20-5.4-8.8-5.4-13.8-15.4-5-10-5.6-23.4h-14v42.8h-12.9v-97.9h12.9v45h14q0.2-13.9 5-24.3 4.8-10.5 13.8-16.3 8.9-5.7 20.5-5.7 11.8 0 20.7 5.7 9 5.7 13.8 16.5 4.9 10.7 4.9 25.1zm-12.9-6.4q0-17.4-6.9-26.7-7-9.3-19.6-9.3-12.3 0-19.3 9.3-7 9.3-7.2 25.9v7.2q0 16.8 7.1 26.5 7.1 9.6 19.5 9.6 12.5 0 19.4-9.1 6.8-9.1 7-26.1z"/>
					</g>
					<g id="g90">
						<path id="path92" fill-rule="evenodd" class="s1" d="m2265.5 508.7q0 14.3-4.9 25.1-4.8 10.7-13.7 16.3-8.8 5.7-20.7 5.7-11.1 0-20-5.4-8.8-5.4-13.8-15.4-5-10-5.6-23.4h-14v42.8h-12.9v-97.9h12.9v45h14q0.2-13.9 5-24.3 4.8-10.5 13.8-16.3 8.9-5.7 20.5-5.7 11.8 0 20.7 5.7 9 5.7 13.8 16.5 4.9 10.7 4.9 25.1zm-12.9-6.4q0-17.4-6.9-26.7-7-9.3-19.6-9.3-12.3 0-19.3 9.3-7 9.3-7.2 25.9v7.2q0 16.8 7.1 26.5 7.1 9.6 19.5 9.6 12.5 0 19.4-9.1 6.8-9.1 7-26.1z"/>
					</g>
					<g id="g94">
						<path id="path96" class="s0" d="m1437.4 697.1h-13v-87.3h-48.3v87.3h-12.9v-97.9h74.2z"/>
					</g>
					<g id="g98">
						<path id="path100" fill-rule="evenodd" class="s1" d="m1437.4 697.1h-13v-87.3h-48.3v87.3h-12.9v-97.9h74.2z"/>
					</g>
					<g id="g102">
						<path id="path104" fill-rule="evenodd" class="s0" d="m1473.8 658.8v38.3h-13v-97.9h36.2q16 0 25.1 8.2 9.1 8.2 9.1 21.7 0 14.3-8.9 22-8.9 7.7-25.5 7.7zm0-10.6h23.2q10.4 0 15.9-4.9 5.5-4.8 5.5-14.1 0-8.7-5.5-14-5.5-5.2-15.1-5.4h-24z"/>
					</g>
					<g id="g106">
						<path id="path108" fill-rule="evenodd" class="s1" d="m1473.8 658.8v38.3h-13v-97.9h36.2q16 0 25.1 8.2 9.1 8.2 9.1 21.7 0 14.3-8.9 22-8.9 7.7-25.5 7.7zm0-10.6h23.2q10.4 0 15.9-4.9 5.5-4.8 5.5-14.1 0-8.7-5.5-14-5.5-5.2-15.1-5.4h-24z"/>
					</g>
					<g id="g110">
						<path id="path112" class="s0" d="m1603.1 651.9h-42.5v34.7h49.3v10.5h-62.2v-97.9h61.5v10.6h-48.6v31.5h42.5z"/>
					</g>
					<g id="g114">
						<path id="path116" fill-rule="evenodd" class="s1" d="m1603.1 651.9h-42.5v34.7h49.3v10.5h-62.2v-97.9h61.5v10.6h-48.6v31.5h42.5z"/>
					</g>
					<g id="g118">
						<path id="path120" class="s0" d="m1676.2 625.5q0-7.8-5.7-12.5-5.7-4.6-15.9-4.6-8.6 0-14.5 4.8-5.8 4.7-5.8 11.8h-12.9q0-7.8 4.3-14 4.3-6.2 11.9-9.7 7.7-3.4 17-3.4 16.4 0 25.4 7.3 9.1 7.4 9.1 20.5 0 6.8-4.1 12.3-4.2 5.6-11.7 8.9 17.3 5.7 17.3 22.9 0 13.2-9.8 20.9-9.8 7.8-26.2 7.8-9.8 0-17.8-3.5-7.9-3.5-12.4-9.9-4.4-6.3-4.4-15.2h12.9q0 7.7 6.1 12.9 6.1 5.1 15.6 5.1 10.5 0 16.8-4.9 6.3-4.9 6.3-13 0-17.2-21.3-17.5h-12.1v-10.6h12q9.8-0.2 14.9-4.4 5-4.3 5-12z"/>
					</g>
					<g id="g122">
						<path id="path124" fill-rule="evenodd" class="s1" d="m1676.2 625.5q0-7.8-5.7-12.5-5.7-4.6-15.9-4.6-8.6 0-14.5 4.8-5.8 4.7-5.8 11.8h-12.9q0-7.8 4.3-14 4.3-6.2 11.9-9.7 7.7-3.4 17-3.4 16.4 0 25.4 7.3 9.1 7.4 9.1 20.5 0 6.8-4.1 12.3-4.2 5.6-11.7 8.9 17.3 5.7 17.3 22.9 0 13.2-9.8 20.9-9.8 7.8-26.2 7.8-9.8 0-17.8-3.5-7.9-3.5-12.4-9.9-4.4-6.3-4.4-15.2h12.9q0 7.7 6.1 12.9 6.1 5.1 15.6 5.1 10.5 0 16.8-4.9 6.3-4.9 6.3-13 0-17.2-21.3-17.5h-12.1v-10.6h12q9.8-0.2 14.9-4.4 5-4.3 5-12z"/>
					</g>
					<g id="g126">
						<path id="path128" class="s0" d="m1769.4 599.2h12.9v97.9h-12.9v-75.4l-48.2 75.4h-13v-97.9h13v75.5z"/>
					</g>
					<g id="g130">
						<path id="path132" fill-rule="evenodd" class="s1" d="m1769.4 599.2h12.9v97.9h-12.9v-75.4l-48.2 75.4h-13v-97.9h13v75.5z"/>
					</g>
					<g id="g134">
						<path id="path136" fill-rule="evenodd" class="s0" d="m1895.3 721.1h-12.8v-24h-70.3v24.1h-12.9v-34.6h8q6.3-7.2 10-19.2 3.7-12 4.7-26.3l2.1-41.9h58.6v87.4h12.8zm-73.4-34.6h47.8v-76.8h-33.2l-1.4 28.8q-0.9 16.9-4.5 28.8-3.6 11.9-8.7 19.2z"/>
					</g>
					<g id="g138">
						<path id="path140" fill-rule="evenodd" class="s1" d="m1895.3 721.1h-12.8v-24h-70.3v24.1h-12.9v-34.6h8q6.3-7.2 10-19.2 3.7-12 4.7-26.3l2.1-41.9h58.6v87.4h12.8zm-73.4-34.6h47.8v-76.8h-33.2l-1.4 28.8q-0.9 16.9-4.5 28.8-3.6 11.9-8.7 19.2z"/>
					</g>
					<g id="g142">
						<path id="path144" class="s0" d="m1966.1 651.9h-42.4v34.7h49.3v10.5h-62.2v-97.9h61.5v10.6h-48.6v31.5h42.4z"/>
					</g>
					<g id="g146">
						<path id="path148" fill-rule="evenodd" class="s1" d="m1966.1 651.9h-42.4v34.7h49.3v10.5h-62.2v-97.9h61.5v10.6h-48.6v31.5h42.4z"/>
					</g>
					<g id="g150">
						<path id="path152" class="s0" d="m2064.3 697.1h-13v-45.2h-49.3v45.2h-12.9v-97.9h12.9v42.1h49.3v-42.1h13z"/>
					</g>
					<g id="g154">
						<path id="path156" fill-rule="evenodd" class="s1" d="m2064.3 697.1h-13v-45.2h-49.3v45.2h-12.9v-97.9h12.9v42.1h49.3v-42.1h13z"/>
					</g>
					<g id="g158">
						<path id="path160" class="s0" d="m2152.9 609.8h-31.4v87.3h-12.9v-87.3h-31.4v-10.6h75.7z"/>
					</g>
					<g id="g162">
						<path id="path164" fill-rule="evenodd" class="s1" d="m2152.9 609.8h-31.4v87.3h-12.9v-87.3h-31.4v-10.6h75.7z"/>
					</g>
					<g id="g166">
						<path id="path168" fill-rule="evenodd" class="s0" d="m2216.2 671.5h-41l-9.2 25.6h-13.3l37.3-97.9h11.3l37.5 97.9h-13.3zm-37.1-10.5h33.3l-16.7-45.8z"/>
					</g>
					<g id="g170">
						<path id="path172" fill-rule="evenodd" class="s1" d="m2216.2 671.5h-41l-9.2 25.6h-13.3l37.3-97.9h11.3l37.5 97.9h-13.3zm-37.1-10.5h33.3l-16.7-45.8z"/>
					</g>
					<g id="g174">
						<path id="path176" class="s0" d="m790.5 422.4c-4.5 0-7.4 2.5-7.4 9v49.3c0 6.5 2.9 9 7.4 9 4.6 0 7.5-2.5 7.5-9v-49.3c0-6.5-2.9-9-7.5-9z"/>
					</g>
					<g id="g178">
						<path id="path180" class="s0" d="m609.3 472.8h13.8l-6.9-46.3z"/>
					</g>
					<g id="g182">
						<path id="path184" class="s0" d="m982.8 641.6c-4.5 0-7.4 2.5-7.4 9v49.4c0 6.5 2.9 9 7.4 9 4.6 0 7.5-2.5 7.5-9v-49.4c0-6.5-2.9-9-7.5-9z"/>
					</g>
					<g id="g186">
						<path id="path188" class="s0" d="m930.9 642.7h-6.8v30.9h6.8c4.6 0 7-2.1 7-8.6v-13.7c0-6.5-2.4-8.6-7-8.6z"/>
					</g>
					<g id="g190">
						<path id="path192" class="s0" d="m895.1 472.8h13.9l-6.9-46.3z"/>
					</g>
					<g id="g194">
						<path id="path196" class="s0" d="m967.1 532c-4.6 0-7.4 2.5-7.4 9v49.3c0 6.6 2.8 9 7.4 9 4.6 0 7.4-2.4 7.4-9v-49.3c0-6.5-2.8-9-7.4-9z"/>
					</g>
					<g id="g198">
						<path id="path200" class="s0" d="m1136.5 480.1v-13.7c0-6.6-2.4-8.7-7-8.7h-6.8v31h6.8c4.6 0 7-2.1 7-8.6z"/>
					</g>
					<g id="g202">
						<path id="path204" class="s0" d="m1185.6 589.7v-13.7c0-6.5-2.4-8.6-7-8.6h-6.8v30.9h6.8c4.6 0 7-2.1 7-8.6z"/>
					</g>
					<g id="g206">
						<path id="path208" class="s0" d="m1027.1 480.1v-13.7c0-6.6-2.5-8.7-7.1-8.7h-6.8v31h6.8c4.6 0 7.1-2.1 7.1-8.6z"/>
					</g>
					<g id="g210">
						<path id="path212" class="s0" d="m922.2 555.4v-13.7c0-6.6-2.5-8.7-7.1-8.7h-6.7v31h6.7c4.6 0 7.1-2.1 7.1-8.6z"/>
					</g>
					<g id="g214">
						<path id="path216" fill-rule="evenodd" class="s0" d="m1244 401.2v331.7c0 3.8-2.4 7.2-6 8.5l-1037.5 377.6c-7.6 2.8-14.8-5-11.4-12.4l330.7-709.2c1.5-3.3 4.8-5.3 8.3-5.3h706.8c5 0 9.1 4.1 9.1 9.1zm-21.4 118.8h-14.4v91.3h14.4zm0 109.7h-15.8l-11.8 37.7-5.2 20.1v-57.8h-12.8v91.3h14.8l12-41.9 5.9-22.4v64.3h12.9zm-56.9 0h-15.8l-11.8 37.7-5.2 20.1v-57.8h-12.7v91.4h14.7l12-41.9 5.9-22.5v64.4h12.9zm-46.7-96.6v78.3h14.3v-78.3h15v-13h-44.3v13zm-9.1 118.5c0-14.6-7.3-22.9-21.4-22.9-14.1 0-21.4 8.3-21.4 22.9v47.5c0 14.6 7.3 23 21.4 23 14.1 0 21.4-8.4 21.4-23v-12.1h-13.6v13c0 6.6-2.9 8.9-7.4 8.9-4.6 0-7.5-2.3-7.5-8.9v-49.3c0-6.5 2.9-9 7.5-9 4.5 0 7.4 2.5 7.4 9v9.8h13.6zm-46.5-68.3l4.5-8.3 13.9 36.4h14.8l-20-50.7 20-40.7h-14.4l-18.8 39.8v-39.8h-14.3v91.4h14.3zm-6 68.2c0-14.6-7.3-22.9-21.4-22.9-14.1 0-21.4 8.3-21.4 22.9v47.5c0 14.6 7.3 23 21.4 23 14.1 0 21.4-8.4 21.4-23v-12.1h-13.6v13.1c0 6.5-2.9 8.8-7.4 8.8-4.6 0-7.5-2.3-7.5-8.8v-49.4c0-6.5 2.9-9 7.5-9 4.5 0 7.4 2.5 7.4 9v9.8h13.6zm-52.8 0c0-14.6-7.7-23-21.8-23-14.1 0-21.8 8.4-21.8 23v47.5c0 14.6 7.7 23 21.8 23 14.1 0 21.8-8.4 21.8-23zm-52.3 0.6c0-14.6-7.1-22.5-21.4-22.5h-21.2v91.3h14.4v-34.3h6.8c14.3 0 21.4-8 21.4-22.6zm-43.9-75.2h6.7c14.4 0 21.4-7.9 21.4-22.5v-11.9c0-14.6-7-22.6-21.4-22.6h-21.1v91.4h14.4zm-15.1-91.9h17.6l2.5 16.6h14.5l-14.6-91.4h-21.1l-14.6 91.4h13.2zm-10.7 34.8h-45.3v91.4h14.3v-78.3h16.3v78.3h14.7zm-59.5-18.3h14.4v-39.2h16.3v39.2h14.6v-91.4h-14.6v39.2h-16.3v-39.2h-14.4zm-10.7-69.4c0-14.6-7.7-23-21.8-23-14.1 0-21.8 8.4-21.8 23v47.5c0 14.6 7.7 23 21.8 23 14.1 0 21.8-8.4 21.8-23zm-54.2-21.9h-15.9l-11.7 37.7-5.2 20.1v-57.8h-12.8v91.4h14.7l12-41.9 5.9-22.5v64.4h13zm-55.5 78.5h-6.3v-78.5h-14.6v78.3h-16.3v-78.3h-14.3v91.3h37.5v12.3h14zm-60.6 12.8l-14.6-91.4h-21.1l-14.6 91.4h13.2l2.5-16.6h17.6l2.5 16.6zm-59.4-91.4h-14.6v39.2h-16.3v-39.2h-14.4v91.4h14.4v-39.2h16.3v39.2h14.6zm384.4 108.6c-14 0-21.7 8.3-21.7 22.9v47.5c0 14.6 7.7 23 21.7 23 14.1 0 21.8-8.4 21.8-23v-47.5c0-14.6-7.7-22.9-21.8-22.9zm-31.7-17.1h2.2c14.4 0 20.4-6.6 20.9-23.3l1.6-55.2h12.5v78.3h14.6v-91.3h-40.6l-2.3 69c-0.3 8.5-2.4 9.4-8.9 9.4zm78.6 56.6v-25.4h24.8v-13h-39.1v91.3h39.1v-13.1h-24.8v-26.7h19.8v-13.1zm-15.2-56.7h21.2c14.3 0 21.4-8 21.4-22.6v-11.9c0-14.6-7.1-22.6-21.4-22.6h-6.8v-34.3h-14.4zm52.8 0h14.3v-39.1h16.3v39.1h14.6v-91.3h-14.6v39.1h-16.3v-39.1h-14.3zm56.7 0h21.1c14.4 0 21.4-8 21.4-22.6v-11.9c0-14.6-7-22.6-21.4-22.6h-6.7v-34.3h-14.4zm49.1 109.6h21.2c14.3 0 21.3-7.9 21.3-22.5v-11.9c0-14.6-7-22.6-21.3-22.6h-6.8v-34.3h-14.4zm1.7-109.6h14.3v-91.4h-14.3zm65-91.3h-39.2v91.3h39.2v-13h-24.8v-26.8h19.7v-13h-19.7v-25.5h24.8z"/>
					</g>
				</g>
			</g>
		</g>
	</g>
</svg>